<?xml version="1.0" encoding="UTF-8"?>
<svg xmlns="http://www.w3.org/2000/svg" xmlns:xlink="http://www.w3.org/1999/xlink" version="1.1" viewBox="0 0 63 63">
  <defs>
    <style>
      .cls-1 {
        fill: none;
      }

      .cls-2 {
        stroke: #000;
        stroke-miterlimit: 10;
        stroke-width: 3px;
      }

      .cls-3 {
        clip-path: url(#clippath);
      }
    </style>
    <clipPath id="clippath">
      <rect class="cls-1" x="-5.2" y="28.2" width="71.7" height="36.1"/>
    </clipPath>
  </defs>
  <!-- Generator: Adobe Illustrator 28.6.0, SVG Export Plug-In . SVG Version: 1.2.0 Build 709)  -->
  <g>
    <g id="Layer_1">
      <path class="cls-2" d="M31.6,47.6c-16.3,0-29.6-8-29.6-17.8s4.1-10.6,11.2-14c.5-.2,1,0,1.3.5.2.5,0,1-.5,1.3-6.5,3-10.1,7.5-10.1,12.2,0,8.8,12.4,15.9,27.7,15.9s27.7-7.1,27.7-15.9-12.4-15.9-27.7-15.9-2,0-2.9,0-1-.4-1-.9.4-1,.9-1h3c16.3,0,29.6,8,29.6,17.8s-13.3,17.8-29.6,17.8h0Z"/>
      <path class="cls-2" d="M33.9,24.1l-9.6-9.6c-.4-.4-.4-1,0-1.4l9.6-9.6c.4-.4,1-.4,1.3,0s.4,1,0,1.3l-8.9,8.9,8.9,8.9c.4.4.4,1,0,1.4-.2.2-1.9.4-.9,0l.2.3"/>
      <path class="cls-2" d="M32.9,47.3h-.6c-1.7,0-7.7-.3-11.3-3.7-.1,0-1.2-1.3-1.2-2.9s.6-2.1,1.8-3c0,0,3.6-3.3,11-3.3s10.9,3.2,11,3.4c1,.8,1.6,1.8,1.7,3,0,1.6-1,2.8-1.2,2.9-3.6,3.5-9.5,3.7-11.3,3.7h.1ZM32.6,45.4h.3c1.1,0,6.8-.2,9.9-3.2h0s.6-.7.6-1.5-.4-1.1-1-1.6c0,0-3.2-2.9-9.8-2.9s-9.7,2.8-9.7,2.8c-.7.6-1.1,1.1-1.1,1.7s.6,1.5.6,1.5c3.1,3,8.8,3.2,9.9,3.2h.3Z"/>
      <g class="cls-3">
        <path class="cls-2" d="M31.5,60.9c-16.2,0-29.5-14.3-29.5-31.8s.4-1,1-1,1,.4,1,1c0,16.6,12.3,29.9,27.6,29.9s27.6-13.5,27.6-29.9.4-1,1-1,1,.4,1,1c0,17.6-13.2,31.8-29.5,31.8h-.2Z"/>
      </g>
    </g>
  </g>
</svg>